<svg width="49" height="47" fill="none" xmlns="http://www.w3.org/2000/svg"><path fill-rule="evenodd" clip-rule="evenodd" d="M12.57 3.022s10.561-6.753 23.517-.069c0 0 15.057 9.266 9.521 20.72 0 0-4.142 7.696-12.936 3.063 0 0-4.565-2.591-3.819-10.454.756-8.009-5.585-11.63-5.585-11.63S18.125 1.48 12.57 3.021zm-.422 37.083c-.943-1.168-2.003-9.05 4.102-11.524 0 0 4.908-2.453 11.053 1.875 5.575 3.936 13.064.884 13.064.884s7.303-3.524 7.715-8.893c0 0 .334 14.792-14.046 21.947 0 0-11.847 5.271-19.346-.834l-2.542-3.455zm.687 3.533S-.662 36.758.024 22.31c0 0 .206-16.156 13.84-18.129 0 0 9.884-.756 9.472 9.816 0 0-.285 6.762-7.43 8.382C7.18 24.35 8.27 33.145 8.27 33.145s.344 6.616 4.565 10.493z" fill="#1C5394"/></svg>