<svg width="16" height="14" viewBox="0 0 16 14" fill="none" xmlns="http://www.w3.org/2000/svg">
<path d="M9.63069 1.68529L10.1772 1.1716L9.63069 1.68529ZM8.57054 1.65251L9.08423 2.19897L8.57054 1.65251ZM14.4125 6.77217L14.9589 6.25849L14.4125 6.77217ZM14.8948 7.28524L15.4418 7.79828L15.9235 7.28463L15.4412 6.77156L14.8948 7.28524ZM14.4131 7.79889L14.9602 8.31193L14.4131 7.79889ZM9.63131 12.898L9.08423 12.385L9.63131 12.898ZM8.5712 12.9321L8.05816 13.4792L8.05817 13.4792L8.5712 12.9321ZM8.53715 11.872L7.99007 11.3589L8.53715 11.872ZM12.8372 7.28648L13.3843 7.79951L13.866 7.28586L13.3837 6.77279L12.8372 7.28648ZM8.53776 2.71266L9.08423 2.19897V2.19897L8.53776 2.71266ZM10.1772 1.1716C9.60975 0.567989 8.66046 0.53864 8.05685 1.10604L9.08423 2.19897V2.19897L10.1772 1.1716ZM14.9589 6.25849L10.1772 1.1716L9.08423 2.19897L13.866 7.28586L14.9589 6.25849ZM15.4412 6.77156L14.9589 6.25849L13.866 7.28586L14.3483 7.79893L15.4412 6.77156ZM14.9602 8.31193L15.4418 7.79828L14.3477 6.77221L13.866 7.28586L14.9602 8.31193ZM10.1784 13.4111L14.9602 8.31193L13.866 7.28586L9.08423 12.385L10.1784 13.4111ZM8.05817 13.4792C8.66245 14.0458 9.61171 14.0154 10.1784 13.4111L9.08423 12.385L8.05817 13.4792ZM7.99007 11.3589C7.42339 11.9632 7.45388 12.9125 8.05816 13.4792L9.08423 12.385L9.08423 12.385L7.99007 11.3589ZM12.2902 6.77345L7.99007 11.3589L9.08423 12.385L13.3843 7.79951L12.2902 6.77345ZM7.9913 3.22635L12.2908 7.80017L13.3837 6.77279L9.08423 2.19897L7.9913 3.22635ZM8.05685 1.10604C7.45324 1.67345 7.42389 2.62274 7.9913 3.22635L9.08423 2.19897V2.19897L8.05685 1.10604ZM1.8457 5.76404C1.01728 5.76404 0.345703 6.43561 0.345703 7.26404H1.8457V5.76404ZM13.5026 5.76404H1.8457V7.26404H13.5026V5.76404ZM15.0026 7.26404C15.0026 6.43561 14.331 5.76404 13.5026 5.76404V7.26404H15.0026ZM13.5026 8.76404C14.331 8.76404 15.0026 8.09247 15.0026 7.26404H13.5026V8.76404ZM1.8457 8.76404H13.5026V7.26404H1.8457V8.76404ZM0.345703 7.26404C0.345703 8.09247 1.01728 8.76404 1.8457 8.76404V7.26404H0.345703Z" fill="white"/>
</svg>
