<svg width="25" height="26" fill="none" xmlns="http://www.w3.org/2000/svg"><path d="M18.152 16.227l-1.06 1.06 1.06-1.06zm-2.121 0l-1.06-1.06 1.06 1.06zm6.873 4.752l1.06-1.06-1.06 1.06zm0 2.121l1.06 1.061-1.06-1.06zm-2.121 0l-1.061 1.061 1.06-1.06zm-4.752-4.752l1.06-1.06-1.06 1.06zM11.124.234C5.001.233.037 5.197.037 11.321h3a8.087 8.087 0 0 1 8.087-8.088v-3zm11.088 11.088c0-6.124-4.964-11.088-11.088-11.088v3a8.087 8.087 0 0 1 8.088 8.088h3zM11.124 22.408c6.124 0 11.088-4.964 11.088-11.087h-3a8.087 8.087 0 0 1-8.088 8.087v3zM.037 11.32c0 6.123 4.964 11.087 11.087 11.087v-3a8.087 8.087 0 0 1-8.087-8.087h-3zm6 0a5.087 5.087 0 0 1 5.087-5.088v-3a8.087 8.087 0 0 0-8.087 8.088h3zm5.087 5.087a5.087 5.087 0 0 1-5.087-5.087h-3a8.087 8.087 0 0 0 8.087 8.087v-3zm5.088-5.087a5.087 5.087 0 0 1-5.088 5.087v3a8.087 8.087 0 0 0 8.088-8.087h-3zm-5.088-5.088a5.087 5.087 0 0 1 5.088 5.088h3a8.087 8.087 0 0 0-8.088-8.088v3zm8.089 8.933a3 3 0 0 0-4.243 0l2.122 2.122 2.12-2.122zm4.752 4.752l-4.752-4.752-2.121 2.122 4.751 4.752 2.122-2.122zm0 4.243a3 3 0 0 0 0-4.243l-2.122 2.122 2.122 2.121zm-4.243 0a3 3 0 0 0 4.243 0l-2.122-2.121-2.12 2.121zm-4.752-4.752l4.752 4.752 2.121-2.121-4.751-4.752-2.122 2.121zm0-4.242a3 3 0 0 0 0 4.242l2.122-2.121-2.122-2.122z" fill="#37B370"/></svg>