<svg width="16" height="14" fill="none" xmlns="http://www.w3.org/2000/svg"><path d="M9.63 1.685l.547-.513-.546.513zm-1.06-.032l.514.546-.513-.546zm5.842 5.12l.547-.515-.546.514zm.483.512l.547.513.482-.513-.483-.513-.546.513zm-.482.514l.547.513-.547-.513zm-4.782 5.099l-.547-.513.547.513zm-1.06.034l-.513.547.513-.547zm-.034-1.06l-.547-.513.547.513zm4.3-4.586l.547.514.482-.514-.482-.513-.547.513zm-4.3-4.573l.547-.514-.546.514zm1.64-1.541a1.5 1.5 0 0 0-2.12-.066l1.027 1.093 1.093-1.027zm4.782 5.086l-4.782-5.086-1.093 1.027 4.782 5.087 1.093-1.028zm.482.514l-.482-.514-1.093 1.028.482.513 1.093-1.027zm-.48 1.54l.48-.514-1.093-1.026-.482.514 1.094 1.026zm-4.783 5.1l4.782-5.1-1.094-1.026-4.782 5.099 1.094 1.026zm-2.12.067a1.5 1.5 0 0 0 2.12-.068l-1.094-1.026-1.026 1.094zm-.068-2.12a1.5 1.5 0 0 0 .068 2.12l1.026-1.094-1.094-1.026zm4.3-4.586l-4.3 4.586 1.094 1.026 4.3-4.585-1.094-1.027zM7.991 3.226l4.3 4.574 1.093-1.027-4.3-4.574-1.093 1.027zm.066-2.12a1.5 1.5 0 0 0-.066 2.12L9.084 2.2 8.057 1.106zM1.846 5.764a1.5 1.5 0 0 0-1.5 1.5h1.5v-1.5zm11.657 0H1.846v1.5h11.657v-1.5zm1.5 1.5a1.5 1.5 0 0 0-1.5-1.5v1.5h1.5zm-1.5 1.5a1.5 1.5 0 0 0 1.5-1.5h-1.5v1.5zm-11.657 0h11.657v-1.5H1.846v1.5zm-1.5-1.5a1.5 1.5 0 0 0 1.5 1.5v-1.5h-1.5z" fill="#fff"/></svg>